# File created by Blade
# Date/Time:  Mon Sep 22 17:38:34 2014
# Frame Rate: 120.000 fps
#------------------------------------------------------
:FULLY-SPECIFIED
:DEGREES
3649
root 3.516411 38.590182 5.629980 23.347331 35.176934 42.097152
RightUpLeg 2.529945 -24.020798 -30.767330
RightLeg 15.800166 -0.000000 -0.000000
RightFoot -29.778367 -28.451573 24.114290
RightToeBase 10.684270 -0.000000 -0.000000
LeftUpLeg 7.713735 30.329190 6.706971
LeftLeg 114.687159 -0.000000 -0.000000
LeftFoot 27.571841 18.060736 -32.337164
LeftToeBase -4.680681 -0.000000 0.000000
Spine 10.956666 -6.058051 -12.504203
RightShoulder -2.236994 -20.983561 -18.168065
RightArm 23.532143 16.995354 51.646211
RightForeArm 5.992315 0.000000 113.656438
RightHand 3.947732 -0.000000 -38.518704
RightHandThumb1 -24.326973 -0.000000 -32.862282
LeftShoulder -27.037034 37.743607 -17.602966
LeftArm 30.501060 -6.586556 -68.827421
LeftForeArm 31.927252 0.000000 68.243070
LeftHand -26.341438 -0.000000 11.626263
LeftHandThumb1 -26.253704 0.000000 33.147579
Head 16.987104 -18.563741 -19.523317
3650
root 3.507441 38.587936 5.633521 23.415044 35.359583 42.192303
RightUpLeg 2.643728 -23.869726 -30.726329
RightLeg 15.750566 -0.000000 -0.000000
RightFoot -29.919739 -28.759078 24.252431
RightToeBase 10.337373 -0.000000 -0.000000
LeftUpLeg 7.390635 30.027183 6.724846
LeftLeg 114.090998 -0.000000 -0.000000
LeftFoot 27.469364 18.264896 -32.364851
LeftToeBase -4.934871 -0.000000 0.000000
Spine 11.010886 -6.176155 -12.435021
RightShoulder -2.268149 -20.953590 -18.169035
RightArm 23.470650 17.070290 51.642357
RightForeArm 5.972544 -0.000000 113.727342
RightHand 3.881304 0.000000 -38.385198
RightHandThumb1 -24.326973 -0.000000 -32.862282
LeftShoulder -27.022479 37.705905 -17.612948
LeftArm 30.529844 -6.603035 -68.885530
LeftForeArm 31.925845 -0.000000 68.267959
LeftHand -26.748845 -0.000000 11.586230
LeftHandThumb1 -26.253704 0.000000 33.147579
Head 16.910607 -18.591991 -19.569901
3651
root 3.500844 38.587792 5.638600 23.526784 35.530844 42.343797
RightUpLeg 2.765034 -23.787796 -30.745703
RightLeg 15.698270 -0.000000 -0.000000
RightFoot -30.038427 -29.010945 24.350597
RightToeBase 10.380237 -0.000000 -0.000000
LeftUpLeg 7.012170 29.703563 6.651840
LeftLeg 113.413124 -0.000000 -0.000000
LeftFoot 27.353053 18.486215 -32.461348
LeftToeBase -4.806553 -0.000000 0.000000
Spine 11.057347 -6.277716 -12.432563
RightShoulder -2.346598 -20.989036 -18.129018
RightArm 23.455124 17.144026 51.633761
RightForeArm 5.913472 -0.000000 113.790855
RightHand 3.796240 -0.000000 -38.334233
RightHandThumb1 -24.326973 -0.000000 -32.862282
LeftShoulder -27.012917 37.673328 -17.612671
LeftArm 30.553899 -6.605457 -68.916406
LeftForeArm 31.931014 -0.000000 68.284430
LeftHand -26.782472 -0.000000 11.638419
LeftHandThumb1 -26.253704 0.000000 33.147579
Head 16.815871 -18.667749 -19.539309
3652
root 3.486670 38.585528 5.639728 23.678224 35.790593 42.519279
RightUpLeg 2.902101 -23.843673 -30.758424
RightLeg 15.663738 -0.000000 -0.000000
RightFoot -30.134357 -29.218119 24.418242
RightToeBase 10.703968 -0.000000 -0.000000
LeftUpLeg 6.565185 29.313111 6.622827
LeftLeg 112.706722 -0.000000 -0.000000
LeftFoot 27.206754 18.667086 -32.603437
LeftToeBase -4.596014 -0.000000 0.000000
Spine 11.139198 -6.460177 -12.421043
RightShoulder -2.411800 -20.991161 -18.065016
RightArm 23.381746 17.238909 51.567288
RightForeArm 5.912754 -0.000000 113.880894
RightHand 3.817619 0.000000 -38.443999
RightHandThumb1 -24.326973 -0.000000 -32.862282
LeftShoulder -27.023231 37.632199 -17.610802
LeftArm 30.628196 -6.605660 -68.950920
LeftForeArm 31.904451 -0.000000 68.255414
LeftHand -26.496921 -0.000000 11.701780
LeftHandThumb1 -26.253704 0.000000 33.147579
Head 16.642845 -18.743127 -19.420456
3653
root 3.472937 38.582104 5.642874 23.782193 36.029473 42.644903
RightUpLeg 3.028308 -23.859995 -30.740560
RightLeg 15.648671 -0.000000 -0.000000
RightFoot -30.239624 -29.405822 24.512412
RightToeBase 10.678160 -0.000000 -0.000000
LeftUpLeg 6.160951 28.961591 6.678743
LeftLeg 111.900920 -0.000000 -0.000000
LeftFoot 27.130286 18.753243 -32.541898
LeftToeBase -4.619971 -0.000000 0.000000
Spine 11.225089 -6.582523 -12.367947
RightShoulder -2.467664 -21.029243 -18.024137
RightArm 23.306654 17.337121 51.519108
RightForeArm 5.982103 -0.000000 113.965230
RightHand 3.905213 0.000000 -38.589242
RightHandThumb1 -24.326973 -0.000000 -32.862282
LeftShoulder -26.994047 37.620508 -17.591423
LeftArm 30.695898 -6.589483 -68.996803
LeftForeArm 31.902131 -0.000000 68.278128
LeftHand -26.576123 -0.000000 11.757314
LeftHandThumb1 -26.253704 0.000000 33.147579
Head 16.513167 -18.844914 -19.329907
3654
root 3.459477 38.578114 5.647620 23.910736 36.253257 42.777484
RightUpLeg 3.127661 -23.892494 -30.738395
RightLeg 15.655671 -0.000000 -0.000000
RightFoot -30.334108 -29.530368 24.593553
RightToeBase 10.657582 -0.000000 -0.000000
LeftUpLeg 5.729029 28.653811 6.748037
LeftLeg 110.997417 -0.000000 -0.000000
LeftFoot 27.046672 18.857647 -32.303871
LeftToeBase -4.462336 -0.000000 0.000000
Spine 11.274571 -6.674376 -12.328303
RightShoulder -2.547080 -21.143176 -17.967943
RightArm 23.286405 17.486153 51.519854
RightForeArm 6.041939 0.000000 114.044629
RightHand 3.978551 -0.000000 -38.652237
RightHandThumb1 -24.326973 -0.000000 -32.862282
LeftShoulder -26.934604 37.598119 -17.528490
LeftArm 30.712264 -6.563910 -69.031844
LeftForeArm 31.900090 0.000000 68.323907
LeftHand -26.540268 -0.000000 11.617376
LeftHandThumb1 -26.253704 0.000000 33.147579
Head 16.425931 -18.989503 -19.264801
3655
root 3.440001 38.573786 5.647315 24.088166 36.458552 42.925561
RightUpLeg 3.135981 -23.918172 -30.713560
RightLeg 15.709706 -0.000000 -0.000000
RightFoot -30.440165 -29.719513 24.637009
RightToeBase 10.646132 -0.000000 -0.000000
LeftUpLeg 5.214653 28.365629 6.769547
LeftLeg 110.019015 -0.000000 -0.000000
LeftFoot 26.904027 18.988630 -32.072983
LeftToeBase -4.412239 -0.000000 0.000000
Spine 11.295950 -6.763795 -12.319975
RightShoulder -2.597409 -21.232888 -17.902498
RightArm 23.235100 17.648116 51.491118
RightForeArm 6.005918 -0.000000 114.122282
RightHand 3.947459 -0.000000 -38.743423
RightHandThumb1 -24.326973 -0.000000 -32.862282
LeftShoulder -26.870574 37.572121 -17.444099
LeftArm 30.732799 -6.512275 -69.053079
LeftForeArm 31.773164 -0.000000 68.361095
LeftHand -26.631805 -0.000000 11.772116
LeftHandThumb1 -26.253704 0.000000 33.147579
Head 16.331354 -19.119665 -19.136251
3656
root 3.417447 38.569040 5.645538 24.255452 36.653723 43.073025
RightUpLeg 3.135241 -23.927929 -30.692158
RightLeg 15.780168 -0.000000 -0.000000
RightFoot -30.570337 -29.890543 24.703457
RightToeBase 10.330000 -0.000000 -0.000000
LeftUpLeg 4.704747 28.122610 6.822859
LeftLeg 108.935464 -0.000000 -0.000000
LeftFoot 26.708169 19.273980 -31.807888
LeftToeBase -4.248586 -0.000000 0.000000
Spine 11.347662 -6.837463 -12.333136
RightShoulder -2.604724 -21.238413 -17.850087
RightArm 23.091653 17.802087 51.479677
RightForeArm 6.019737 -0.000000 114.225774
RightHand 3.910991 -0.000000 -38.865266
RightHandThumb1 -24.326973 -0.000000 -32.862282
LeftShoulder -26.811032 37.561010 -17.349676
LeftArm 30.781843 -6.476119 -69.099838
LeftForeArm 31.719492 -0.000000 68.389313
LeftHand -26.405834 -0.000000 11.931441
LeftHandThumb1 -26.253704 0.000000 33.147579
Head 16.213902 -19.255206 -18.925845
3657
root 3.395283 38.564702 5.644535 24.439022 36.906258 43.233456
RightUpLeg 3.174738 -23.999875 -30.669860
RightLeg 15.833548 -0.000000 -0.000000
RightFoot -30.679712 -30.025813 24.790846
RightToeBase 10.625087 -0.000000 -0.000000
LeftUpLeg 4.179100 27.824353 6.911551
LeftLeg 107.753199 -0.000000 -0.000000
LeftFoot 26.636523 19.503556 -31.527467
LeftToeBase -4.727510 -0.000000 0.000000
Spine 11.414888 -6.959330 -12.310993
RightShoulder -2.697560 -21.275870 -17.816010
RightArm 23.070827 17.894105 51.529298
RightForeArm 6.067501 0.000000 114.302306
RightHand 3.874609 -0.000000 -39.148721
RightHandThumb1 -24.326973 -0.000000 -32.862282
LeftShoulder -26.744749 37.526987 -17.283240
LeftArm 30.811811 -6.424838 -69.089749
LeftForeArm 31.711769 -0.000000 68.466501
LeftHand -26.459852 -0.000000 11.929224
LeftHandThumb1 -26.253704 0.000000 33.147579
Head 16.050291 -19.414443 -18.768381
3658
root 3.365860 38.558499 5.640866 24.610519 37.169849 43.356869
RightUpLeg 3.178662 -24.023227 -30.586078
RightLeg 15.901943 -0.000000 -0.000000
RightFoot -30.805265 -30.232598 24.879070
RightToeBase 10.621432 -0.000000 -0.000000
LeftUpLeg 3.617463 27.528482 7.033169
LeftLeg 106.481295 -0.000000 -0.000000
LeftFoot 26.518602 19.701855 -31.359070
LeftToeBase -4.584279 -0.000000 0.000000
Spine 11.511149 -7.126237 -12.261075
RightShoulder -2.729538 -21.226904 -17.805462
RightArm 22.995219 18.029794 51.580176
RightForeArm 6.068794 -0.000000 114.373411
RightHand 3.896815 0.000000 -39.114734
RightHandThumb1 -24.326973 -0.000000 -32.862282
LeftShoulder -26.708558 37.460302 -17.231013
LeftArm 30.818512 -6.353299 -69.073703
LeftForeArm 31.672709 -0.000000 68.568004
LeftHand -26.507209 -0.000000 11.924184
LeftHandThumb1 -26.253704 0.000000 33.147579
Head 15.803268 -19.549106 -18.598173
3659
root 3.336186 38.553544 5.635286 24.789617 37.349012 43.472497
RightUpLeg 3.099615 -24.015193 -30.512811
RightLeg 16.003845 -0.000000 -0.000000
RightFoot -30.921092 -30.428267 24.930225
RightToeBase 10.648094 -0.000000 -0.000000
LeftUpLeg 3.039918 27.315735 7.120022
LeftLeg 105.058501 -0.000000 -0.000000
LeftFoot 26.696104 19.789005 -30.897304
LeftToeBase -4.880003 -0.000000 0.000000
Spine 11.576191 -7.185585 -12.233428
RightShoulder -2.763991 -21.123059 -17.808370
RightArm 22.811225 18.222575 51.656561
RightForeArm 6.165221 -0.000000 114.416639
RightHand 4.216743 -0.000000 -38.629069
RightHandThumb1 -24.326973 -0.000000 -32.862282
LeftShoulder -26.632881 37.425044 -17.149732
LeftArm 30.845103 -6.320711 -69.103227
LeftForeArm 31.701020 0.000000 68.635043
LeftHand -26.282591 -0.000000 11.937043
LeftHandThumb1 -26.253704 0.000000 33.147579
Head 15.577765 -19.704994 -18.390454
